<?xml version="1.0" encoding="UTF-8"?>
<svg version="1.1" viewBox="0 0 2048 916" width="599" height="268" xmlns="http://www.w3.org/2000/svg">
<path transform="translate(0)" d="m0 0h2048v916h-2048z" fill="#41A02F"/>
<path transform="translate(0)" d="m0 0h2048v916h-2048zm1727 2-80 9-51 6-65 7-40 5-75 8-49 6-57 6-67 8-64 7-51 6-64 7-69 8-55 6-61 7-107 12-65 7-61 8-18 1 41-8 43-9 38-9 31-7 23-6 1-2-66 4-74 3h-118l-54-1-90-3-69-4-52-4-81-7h-51l-41 17-17 8-28 13-25 13-13 7 1 7 7 26 3 14 2 2h9l3 2-6 21-4 18-1 18v63l-4 26-6 25-10 30-8 17v13l3 52 3 30 5 26 3 29v22l-2 20-4 23-13 40v24l2 41 3 27 4 17 8 19 9 14 11 13 4 3 1 3-14 1-1 1v57h12l41-3 42-1h38l49 2 39 3 82 10 70 10h10l56-6 44-4 34-3 69-7 89-8 58-6 71-6 107-11 15-1h11l-149 28-41 8-17 4v1h19l55-3 132-6 191-12 24-1h78l44 3 49 6 39 6 39 7 22 3 35 2h40l50-3 40-4 73-10 67-9 48-6 49-7 70-9 20-3 5-3 8-16 9-13 12-21 8-19 8-24 5-22 4-29 2-29 2-52 5-12-1-6-4-10-1-5v-23l2-34 4-31 9-43 4-27 1-9v-37l-4-26-6-23-9-21-7-14-12-19-2-2 1-5 8-13 11-16 6-9-63-1-9-7-9-8-1-2 6-2 27-14 18-11 8-7 7-11 5-13 1-5v-8l-4-14-6-11-8-8-10-5-36-7-31-4-45-3-49-2-44-1v-4l4-10 1-7v-15l-4-13-6-11-9-10-8-5-14-5z" fill="#FDFDFD"/>
<path transform="translate(308,234)" d="m0 0h21l18 4 16 7 15 8 18 12 14 10 5-2 14-11 25-15 15-7 12-4 10-2h22l14 3 12 5 13 10 9 12 7 14 5 17 2 11 1 13v16l-3 29-1 8 10 3 20 8 23 12 14 10 10 9 9 9 9 14 6 13 3 15-1 14-4 13-7 14-7 9-13 13-12 9-26 15-24 10-5 2h-3l3 15 2 16v33l-2 15-4 17-6 16-7 11-9 10-7 6-10 6-8 3-10 2h-20l-16-3-16-6-15-8-20-14-10-9-6-5-6 1-14 12-19 13-17 9-16 6-17 4h-20l-13-3-13-7-12-11-7-9-8-16-6-20-3-19v-33l3-22 1-4-10-2-14-5-25-12-14-9-11-9-8-8-9-13-6-13-3-11v-19l4-15 8-15 9-11 7-8 11-9 18-12 10-6 21-10 14-5h3l-3-16-2-16-1-14v-11l2-21 5-20 7-14 8-11 10-9 12-7 13-4z" fill="#FDFDFD"/>
<path transform="translate(393,368)" d="m0 0h54l24 2 11 16 10 15 13 23 10 19 15 35 11 31 12 48v6l-32 10-26 6-14 2 2-5 2-4-8 10-6 8-13 16-10 11-7 8-14 14-14 11h-4l-9-7-16-15-18-18-11-14-6-8h13l-15-3-8-10-7-10 5 9 6 10-13-1-36-7-25-8-2-4 5-23 10-37 7-17 4-13 7-17 10-22 12-22 15-24 11-15 6-2 22-3z" fill="#41A02F"/>
<path transform="translate(1184,499)" d="m0 0h51l12 2 10 5 11 8 9 10 9 15 5 14 2 8v35l-4 15-8 16-7 12-5 5-13 9-9 4-7 2-11 1h-28l-6-3-4-5-2 7h-6l-1-1v-6l5-3h2l-4-4-4-3v-113l1-28z" fill="#FDFDFD"/>
<path transform="translate(989,499)" d="m0 0h8l8 4 4 5v6l-1 6 1 7-1 8 1 2v8l-1 4 2 8-3 3 1 12 1 1 1 37-1 48-2 1-11 1h-13l-5-2 1-19 3-5-2-5-1-4 4-9-1-14-3-11-5 8-2 5-2 8-4 3-4-3-2 4v2l3-3h2l-2 9-5 2h-7l-2-6v-3h-6l-2-2v-8l-5 1-4-6-4-10v17l-2 5 1 1v14l-3 3 2 1v7l-4 2 1 2v15h-24v-4h2l-3-5v-4h2v-3l-4-3v-6l3-4-1-6v-9l1-5-2-4v-6l3-5-3-5v-5l1-1 2-9 1-2-5-3v-3l7-1-4-9-2-3-1-13 3-6h2l-3-5-2-3 1-6 3-3h2l-1-5 8-5 5-3 4 2 3 2 4-1 3 5 3 7 1 3-2 1-3-1v2l4 1 3 7 2 2 2 8 4 4v9l5 2 4 11v2h3l2-6h5l1-2v-9l8-23 9-21 8-10z" fill="#FCFCFC"/>
<path transform="translate(549,571)" d="m0 0h6l1 5 1 15v38l-3 19-6 16-6 11-8 9-10 6-13 4h-18l-19-5-15-6-21-11-11-8-7-5 2-5 13-14 9-11 13-16 13-18 8-11 19-3 36-6z" fill="#41A02F"/>
<path transform="translate(567,392)" d="m0 0 5 1 18 8 23 12 12 8 12 11 9 11 6 13 2 7v16l-5 14-10 14-9 10-12 10-21 14-16 9-9 3-7-24-10-32-12-29 1-9 11-29z" fill="#41A02F"/>
<path transform="translate(254,398)" d="m0 0h2l12 39 10 25v7l-9 20-13 38-6 26-2 6-6-2-19-9-19-12-11-9-7-6-11-14-6-12-2-10v-8l3-14 6-12 13-15 11-9 15-10 16-9 20-9z" fill="#41A02F"/>
<path transform="translate(266,576)" d="m0 0 28 5 48 6 5 3 13 18 11 14 11 13 9 11 8 8 3 5-11 8-13 8-15 8-19 7-16 4h-18l-10-3-9-5-9-8-7-11-5-11-3-9-3-21v-39l1-10z" fill="#41A02F"/>
<path transform="translate(306,256)" d="m0 0h20l17 4 16 7 16 9 19 13v3l-12 12-7 8-11 13-13 17-9 12-4 4-34 6-26 6-16 4-1-1-1-17v-13l2-23 2-14 5-16 7-13 8-10 8-6 10-4z" fill="#41A02F"/>
<path transform="translate(1519,292)" d="m0 0h7l10 5 5 7 5 16 12 42 5 17 3 13-1 4 2 1 4 11 13 41 1 7h-30l-4-8-9-29-5-16-16-1-10 1-2-4h-2l1 4-4 8-3 7-3 12-4 11-4 13-2 2h-23l-6-1 1-7 13-43 8-26 10-36 9-30 4-11 4-5 7-4z" fill="#FDFDFD"/>
<path transform="translate(1229,292)" d="m0 0h7l9 4 6 7 6 18 18 63 1 11h-2l1 2 2-1 3 6 12 38 4 15-1 1h-30l-3-7-11-35-3-10-1-1-16-1-9 1-3-4-1 7-6 9-3 14-6 17-4 10h-26l-3-1 1-8 10-33 12-39 7-26 10-34 4-12 6-7z" fill="#FDFDFD"/>
<path transform="translate(1615,293)" d="m0 0h30l1 1v56l1 2 9-2 6-5 9-14 4-13 2-10 1-11h30l1 1v8l-5 26-5 12-9 17-1 4v2l4 2 8 9 8 13 1 11 3 6 2 2-1 5v4l3 4v7l-2 7-1 11-4 3-9-1-2-2h-10l-2-3 2-6-6-26-5-13-5-7v-2l-4-2-9-7h-12l-1 1-1 58-6 11-5 4h-10l-6-3-3-3-1-3v-76l4-5-1-4-2-2-1-4v-7l5-5 1-3-6-2z" fill="#FDFDFD"/>
<path transform="translate(498,255)" d="m0 0h14l13 4 9 6 8 8 9 15 5 14 3 15 1 8 1 21v12l-1 10-8-1-31-7-28-4-12-1-5-5-9-12-11-14-13-15-11-12-6-7 17-12 15-9 16-8 16-5z" fill="#41A02F"/>
<path transform="translate(759,292)" d="m0 0h15l12 1 1 5v54l8-1 8-7 6-8 4-9 4-15 1-15h31l1 1-1 13-4 20-7 17-9 15 2 4 9 9 7 10 3 6v9l5 8 1 4-3 5 4 4v11l-2 3-1 12-3 3h-6l-6-3-11-1 1-10-5-23-4-12-6-9-10-8-5-3-5-1-7 1v20l-1 29-1 12-5 10-4 3-14-1-5-5-1-4v-75l4-5-2-5-2-2v-11l5-4-1-3-4-1v-47z" fill="#FDFDFD"/>
<path transform="translate(759,499)" d="m0 0h17l9 1 1 1 1 110 2 9 6 7 8 4 7 1 8-4 5-5 5-10v-92l2-9-2-10 1-3h28l1 1 1 46v53l-1 21-7 17-6 8-13 9-14 6h-20l-16-5-11-8-7-9-5-10-3-9v-50-3-19l1-4-1-1v-7l3-3-1-12 3-9-4-2-1-7z" fill="#FCFCFC"/>
<path transform="translate(937,292)" d="m0 0h26l36 1 1 28-2 2h-59l-5 3-3 4-3 11-1 12 1 1 34 1 1 1 1 25-1 1-34 1-1 13v12l4 16h7l2 1 24 1 1 5 5-3 2-2h26v29l-1 1-23-1-2-6-5 1-4 5-10 1h-15l-15-5-8-5-10-9-6-10-4-13v-80l3-10 8-14 5-6 14-9z" fill="#FDFDFD"/>
<path transform="translate(1403,496)" d="m0 0h7l8 3 4-2h3v31l-1 1h-19l-8 4-3 1-2 10-1 41-3 7 1 5 1 1 1 19-2 3 2 5v7h34l-1 27-6 1-3-3-3 3h-24l-4-2-1-3v4h-7l-1-4-5 1-2 2h-9l-11-2-2 3-9 1-4-1v-4l5-2-4-2-4-3-1-10 8-4 3-4 9-1 6-4h2l2-5 2-4v-86l-10-1h-20l-1-4 1-4-3-3v-5l2-1v-5l4-1h2l3-4h9l4-4 3-1h14l3 2 3-2 4 1 5 1h13l2-2z" fill="#FDFDFD"/>
<path transform="translate(1120,496)" d="m0 0 12 1 4 2 7-2 1 2v27l-1 3h-20l-10 6-2 5-1 8-1 36-2 8 1 5 1 6v14l-1 4 2 10 10 1 22-1 1 1v27h-10v-2l-3 3h-26l-2-7h-2l1 5-1 1h-6l-2-4-5 2-2 1h-7l-5-1-7-1-3 3h-10l-1-4 3-1-7-7v-10l1-1h6l2-5 5-1 7-1 8-7 3-9-1-50 1-34h-12l-7-1-11 1-1-5v-3l-2-3 1-7 5-5 5-4h10l1-3 5-2h14l1 3 3-2 11 1h12z" fill="#FDFDFD"/>
<path transform="translate(1399,293)" d="m0 0h7l4 1h10l7-1 1 1 1 14v49l-1 12v43l-5 16-7 11-7 7-12 6-13 4h-16l-7-4-4-6-3 2-5-1-3-3-5-3-6-8-1-4-3-3-5-15-1-8 30-1 2 6 3 8 7 8 8 4 9-2 8-6 4-8 2-8v-28l1-5-1-5 1-7-1-1v-64z" fill="#FDFDFD"/>
<path transform="translate(1041,295)" d="m0 0h20l6 1 2 6 1 16v37l1 60 3 9 5 4 5 2h7l3-2 1 4h5l2-6h40l1 1v28l-1 1h-41l-3-2v-3l-4 1-2 3h-7l-5-5-7-4-5 1-6 3-5-5-6-4-3-5-1-11h-5l-1-4 1-4-2-3-1-7v-110z" fill="#FDFDFD"/>
<path transform="translate(1212,529)" d="m0 0h22l10 4 7 6 6 10 5 14 2 14-1 14-3 12-7 13-5 6-9 6-6 2h-19l-2-1-1-3v-48l-4-1 3-2v-8l-2-1 1-9 1-6 1-20z" fill="#41A02F"/>
<path transform="translate(494,374)" d="m0 0 8 1 26 5 16 4 14 5 1 4-7 31-9 32-1 5-4-4-10-21-12-22-16-28-6-10z" fill="#41A02F"/>
<path transform="translate(409,304)" d="m0 0 4 1 24 24 7 8 8 9 3 4v3h-33l-38 1h-20l2-4 9-11 7-7 7-8z" fill="#41A02F"/>
<path transform="translate(319,378)" d="m0 0h6l-2 6-9 15-14 25-14 27-5 8-2-2-9-30-5-22-1-11 22-8 22-6z" fill="#41A02F"/>
<path transform="translate(154,183)" d="m0 0h27l25 1v3l-20 18-44 44-3 1-1-2 3-15 11-48z" fill="#FDFDFD"/>
<path transform="translate(491,730)" d="m0 0h18l1 10-1 2-58 10-21 3h-11l4-3 9-6 15-13 4-1z" fill="#FDFDFD"/>
<path transform="translate(410,438)" d="m0 0 2 2 2 18 2 3 7 1 1 8 19 3 1 2-16 3-4 2-2 6-7 3-2 9-1 9-2 1-3-15-2-5-7-1-1-8-13-3-8-1 1-2 17-3 4-4-1-4 4 1 4-2 3-9z" fill="#FDFDFD"/>
<path transform="translate(191,578)" d="m0 0h3l-2 5-4 7-1 4-1 15-5 2-21 2-9 2h-5v-3l12-8 21-16z" fill="#FDFDFD"/>
<path transform="translate(1484,681)" d="m0 0h4v6l-3 3-21 3-12 3-5 2-22-1-14-1-1-2 16-4 53-8z" fill="#FDFDFD"/>
<path transform="translate(1729,641)" d="m0 0h2l1 27 2 11 3 5v3l-5-1-10-5-9-3 3-9 11-26z" fill="#FDFDFD"/>
<path transform="translate(1668,785)" d="m0 0h43l-2 2-17 3-33 4-42 7-10 1 1-2 25-7z" fill="#FDFDFD"/>
<path transform="translate(411,188)" d="m0 0h17l-1 4-5 9-5 10-8 5-3-1 2-10 2-16z" fill="#FDFDFD"/>
<path transform="translate(411,571)" d="m0 0 7 1 4 1 27 1 2 2-4 3-18 2-21 2-8 1v-3l10-9z" fill="#FDFDFD"/>
<path transform="translate(1500,545)" d="m0 0 3 1-2 8-1 21-1 5h-9l-1-3 1-5v-24l5-2z" fill="#FDFDFD"/>
<path transform="translate(374,755)" d="m0 0 9 2 11 2v2l-17 3-11 2h-7l4-4z" fill="#FDFDFD"/>
<path transform="translate(1232,350)" d="m0 0 2 1 5 18v2h-13l1-7z" fill="#41A02F"/>
<path transform="translate(1521,350)" d="m0 0 3 4 4 14v3h-13l4-16z" fill="#41A02F"/>
<path transform="translate(1256,717)" d="m0 0 5 1-1 3-7 2-24 2h-8l4-2z" fill="#FDFDFD"/>
<path transform="translate(1663,177)" d="m0 0h5l1 4-9 10-3-1 2-6z" fill="#FDFDFD"/>
</svg>
