<?xml version="1.0" encoding="UTF-8"?>
<svg version="1.1" viewBox="0 0 2048 885" width="601" height="260" xmlns="http://www.w3.org/2000/svg">
<path transform="translate(0)" d="m0 0h2048v885h-2048z" fill="#FBFAFB"/>
<path transform="translate(326,232)" d="m0 0h11l16 3 16 6 16 8 20 12 14 11 5 2 14-11 14-9 16-9 15-7 13-4 13-2 17 1 16 4 13 7 10 9 8 11 7 14 4 13 3 18v34l-3 27 31 12 24 13 16 12 15 15 7 11 6 12 3 9 1 6v15l-5 16-8 15-13 15-11 9-10 7-21 12-23 10-9 3 1 14 2 16 1 25-2 21-5 21-6 15-7 11-9 10-9 7-11 6-12 3h-25l-16-4-16-7-16-9-19-14-9-7v-2l-4-2-5 1-12 10-11 8-16 10-21 10-22 6h-23l-13-4-11-6-12-11-9-12-7-15-5-19-2-10-1-11v-24l2-20 1-11-14-4-15-6-25-13-16-12-12-12-7-10-7-15-3-12v-15l4-16 9-17 9-11 12-12 12-9 18-11 16-8 16-7 7-2v-9l-3-26v-33l3-19 6-17 7-12 9-10 7-6 10-6 17-5z" fill="#3DA12F"/>
<path transform="translate(402,367)" d="m0 0h60l20 1 4 4 18 28 15 25 13 27 11 26 7 20 6 19 9 39v4l-27 9-18 5-20 4h-9l-6 3 2 1-2 4-8 9-9 11-15 16-14 14-11 9-6 3-10-8-7-7-8-7-14-14-9-11-10-12-1-4 1-1-7-3-9-13 5 9 2 5-9-1-37-7-20-6-9-3 1-10 7-30 8-27 5-12 4-13 9-21 12-25 11-20 14-22 9-12 2-2 24-3z" fill="#FBFAFB"/>
<path transform="translate(1193,497)" d="m0 0h55l10 3 14 8 7 6 10 13 8 16 4 13 1 5v32l-4 15-8 17-7 11-10 9-11 7-12 4-6 1h-34l-8-6-5-8-4-3-1-21v-110z" fill="#3DA12F"/>
<path transform="translate(560,569)" d="m0 0h7l3 26v17l-1 17-4 20-7 16-7 11-8 7-12 6-7 2h-20l-22-6-24-11-16-10-10-7 1-4 14-15 9-11 12-15 10-13 11-16 3-2 38-5 23-5z" fill="#FCFBFC"/>
<path transform="translate(1e3 496)" d="m0 0 7 1 8 6 3 4v5l-2 2v5l3 3-2 4-1 1v6l3 3-1 5-2 2v5l3 3-1 4-3 2v14h3v59l-1 5v7l1 5-1 8-5-1-3 3h-20l-1-1 1-18 2-6-1-11 2-6v-12l-3-15-4 5-4 8-3 9h-6l-5 5v8l-5 1-5-9-5-2-1-1-1-9h-6l-4-8-2-6-2-1v21l-2 2 2 14-5 2 1 4 3 2-2 6-1 8-2 1h2l1 3-2 5h-10l-5 2-1-1-1-7h-1l-1 7-2-1-2-18-2-2 1-4 2-5-1-29 1-2-1-13 2-12v-3l-3-1v-2l5-1-2-9-3-3-1-4 1-11 2-3v-6l-3-4 1-5 4-3 1-7 11-5 5 1v3l7-1 4 9 2 4h-2l-1-2-1 5 4 5 4 7 2 6 4 5 1 7 5 6 4 10 4-1 8-8v-12l3-7 4-12 4-10 2-1 3 1v-3h-3l2-6 7-10z" fill="#3DA12F"/>
<path transform="translate(579,391)" d="m0 0 7 1 24 11 19 11 12 9 13 13 7 11 4 11 1 6v8l-4 16-7 11-8 10-8 8-13 10-18 12-16 9-8 3-3-8-7-25-10-30-9-22v-6l8-20 8-24 7-23z" fill="#FCFBFC"/>
<path transform="translate(265,397)" d="m0 0 4 1 8 25 7 21 7 16v6l-9 21-12 35-6 23-2 11-3 1-19-9-20-12-13-10-9-8-8-10-7-12-3-10v-13l3-12 6-12 12-13 10-9 13-9 17-10 21-10z" fill="#FCFBFC"/>
<path transform="translate(279,574)" d="m0 0 11 2 32 5 34 4 5 5 12 17 2 4h2l9 12 12 13 7 8 9 10v3l-20 13-21 11-24 8-8 2h-19l-10-3-9-5-9-8-8-13-6-17-3-17v-46l1-7z" fill="#FCFBFC"/>
<path transform="translate(321,255)" d="m0 0h16l15 3 14 5 20 11 12 8 9 7-1 3-8 7-12 13-7 9-10 12-10 13-7 10-23 4-29 6-22 6-4-1-1-10v-28l2-18 3-16 5-13 6-11 9-10 5-4 12-5z" fill="#FCFBFC"/>
<path transform="translate(504,255)" d="m0 0h25l12 5 9 7 9 12 7 15 4 15 3 27v29l-1 1-11-1-31-7-27-4-11-1-7-8-12-16-11-13-9-11-14-14 2-4 13-9 16-10 16-8 13-4z" fill="#FCFBFC"/>
<path transform="translate(1237,291)" d="m0 0h11l8 6 5 8 12 40 5 18 5 16 1 11-1 7 5 2 9 28 7 25v2h-20l-5-1-5 1-7-23-5-16-4-13-1-1h-25l-2-3h-2l-2 8-5 8-4 17-5 13-1 2h-3l1 6-1 2h-23l-5-1 1-8 16-51 9-31 5-19 5-15 7-25 4-6 6-5z" fill="#3DA12F"/>
<path transform="translate(1526,291)" d="m0 0h9l6 3 5 4 5 11 7 25 8 27 5 17 1 6v12l5 3 9 31 6 19v5h-29l-3-9-9-28-5-16h-26l-2-3h-2l-2 8-4 6-5 19-4 11-3 4-1 8h-22l-7-1 4-16 9-29 11-36 8-30 9-30 4-11 7-7z" fill="#3DA12F"/>
<path transform="translate(768,291)" d="m0 0h28l1 1-1 59 9-1 6-4 9-10 4-9 5-21 1-9 1-1h29v10l-5 24-7 17-9 15 6 7 8 9 7 12 1 12 4 6v4l-1 1 1 7 2 3-1 9-1 10v4l-7 3-5-1-4-2h-10l1-3v-10l-5-24-5-12-9-10-11-7h-8l-5 1v21l-1 28-1 6 1 3-5 11-5 4-11-1-5-3-2-3v-78l2-2-1-7-2-8 1-5 3-3v-5l-4-4v-14z" fill="#3DA12F"/>
<path transform="translate(1624,291)" d="m0 0h29l1 60 8-1 9-7 9-14 4-14 2-18 1-1h29v11l-5 25-5 12-10 17 2 5 10 10 7 11 2 5v9l4 6 2 4-3 5 4 8-1 9-2 13-4 2h-7l-4-2h-8v-8l-4-20-6-18-7-10-12-9-7-1-8 1v12l-2 39-2 11-3 8-6 3-9-1-6-3-1-2-1-12v-65l3-5-1-6-2-5v-8l4-3 1-6-5-2z" fill="#3DA12F"/>
<path transform="translate(769,497)" d="m0 0 4 1v7l3-1 2-7h13l5 2 1 2v110l3 8 7 7 8 3h7l10-5 5-8 2-4v-45l1-49 1-2v-10l-1-8 2-1h22l5 1v98l-1 22-5 13-6 9-8 7-17 9-3 1h-20l-15-5-9-6-7-7-6-10-4-12v-49l3-5-3-1-1-4 1-13 1-5-2-3 1-4 3-3-2-11 2-10-3-4v-7z" fill="#3DA12F"/>
<path transform="translate(947,291)" d="m0 0h43l4 2h5l2-2h7l1 1v29l-31 1h-29l-6 4-4 8-2 7v11l5 1h30l1 1v25l-2 2-32 1-1 1v27l3 7 1 6 33 1v5l7-2 4-3h23v17l-1 12-1 1h-8l-2-3-4 2-5 1-2-1-3-6-5 1-4 5h-7l-1 1h-17l-4-2-15-5-4-5-8-6-6-10-4-13-1-14v-65l4-14 5-7 4-7 13-10 10-4z" fill="#3DA12F"/>
<path transform="translate(1374,494)" d="m0 0 4 1 2 2h3l1-2h3v2h20l3-3h10l3 2h11l-1 30-2 1h-16l-10 4-3 4-2 7-1 37-2 9v7l1 1 1 10 1 6-2 4 1 10 1 3h31l2 1-1 27h-5l-3-4-3 4h-26l-3-5-3 4-4-2-1-1h-5l-2 2h-9l-12-2-2 3-4 1-4-7-6-5-1-8 1-2 7-3 3-4 9-1 6-4 6-10v-86l-12-1-8-1-7 2-4-1 1-8-3-2 1-5 3-6 5-1 2-4h8l5-4 2-1z" fill="#3DA12F"/>
<path transform="translate(1092,494)" d="m0 0h5l3 3 7-1 19 1 3-3h10l3 2h11v24l-1 6-2 1-21 1-8 6-2 10-1 40-2 4v6l2 3v10l1 5-2 3 1 10 1 4h32l1 1v21l-1 6h-5l-2-4-2-1-1 5h-26l-2-5h-4v4h-3l-3-3-6 1-6 2-15-3-5 4-4-3-2-4-5-5-1-2v-7l8-6 2-2 9-1 6-4 4-4 2-5v-86l-1-1-11-1-7-1-7 2-5-1 2-8-4-4 4-9 5-2 3-4 2 1h6l4-4 2-1z" fill="#3DA12F"/>
<path transform="translate(1408,291)" d="m0 0 11 2h10l7-1v120l-4 13-6 10-10 10-10 5-12 4h-14l-8-3-6-7-4 1h-4l-2-4-4-1-3-3-3-4-2-6-4-3-4-13v-10h25l3 1 4 12 6 8 8 4 9-1 8-4 4-5 3-7 1-5 1-29 1-1v-6l-1-4 1-2-1-10z" fill="#3DA12F"/>
<path transform="translate(1053,294)" d="m0 0h16l7 1 2 13 2 4-1 1v34l-2 2 1 5 1 2v32l1 25 3 9 5 4 9 3h7l7 2 1-7h39l1 1-1 29h-40l-2-5-6 1-2 4h-5l-5-6-7-4h-6l-3 3-4 1-4-6-6-4-2-4-1-11-3-5-5-6v-65l1-9h4l-1-16h-2l-2 2-1-5 1-8v-16z" fill="#3DA12F"/>
<path transform="translate(1221,527)" d="m0 0h26l10 5 7 9 7 15 3 16v9l-4 20-8 14-7 7-8 4-3 1h-22l-1-1-1-48-4-2 1-4 3-1 1-5-5-1 1-13 3-5v-12z" fill="#FCFBFC"/>
<path transform="translate(506,372)" d="m0 0 26 5 19 4 18 6 1 4-6 29-8 29-2 9-2 1-8-16-15-29-13-23-10-16z" fill="#FCFBFC"/>
<path transform="translate(421,303)" d="m0 0 5 1 23 23 7 8 10 11 2 5-61 1-31 1 3-5 11-13 12-13z" fill="#FCFBFC"/>
<path transform="translate(333,376)" d="m0 0h5l-2 5-14 24-15 28-12 24-2 1-10-31-5-23-1-11 9-4 21-7z" fill="#FCFBFC"/>
<path transform="translate(422,440)" d="m0 0 2 2 3 15 2 3 6 1v5l3 2 16 3 1 2-15 3-4 2-1 7h-7l-3 11-2 5-2-4-3-12h-8l-1-7-13-4-5-1 1-2 16-3 2-7 8-3 2-7z" fill="#3DA12F"/>
<path transform="translate(1241,348)" d="m0 0 3 1 5 18-1 3h-11l-2-1 2-9z" fill="#FCFBFC"/>
<path transform="translate(1529,348)" d="m0 0 3 1 5 16v5h-11l-2-1 1-7z" fill="#FCFBFC"/>
<path transform="translate(918,551)" d="m0 0 5 1 1 2 3-2-1 4-8 3-4-1 2-5z" fill="#FCFBFC"/>
<path transform="translate(1194,648)" d="m0 0 4 2v5l-5 1v-6z" fill="#3DA12F"/>
</svg>
